<svg xmlns="http://www.w3.org/2000/svg" width="1600" height="900" viewBox="0 0 1600 900" role="img" aria-label="各层项目数量与 7 月 OpenRank"><rect width="1600" height="900" fill="#fbfaf6"/><rect x="64" y="54" width="10" height="58" rx="5" fill="#7058ff"/><text x="100" y="96" fill="#172033" font-family="Arial, PingFang SC, sans-serif" font-size="42" font-weight="600" text-anchor="start"><tspan x="100" dy="0">各层项目数量与 7 月 OpenRank</tspan></text><line x1="64" y1="166" x2="1536" y2="166" stroke="#d7dbe5"/><rect x="70" y="202" width="720" height="560" rx="18" fill="#ffffff" stroke="#d7dbe5"/><text x="88" y="188" fill="#172033" font-family="Arial, PingFang SC, sans-serif" font-size="26" font-weight="600" text-anchor="start"><tspan x="88" dy="0">Agent Infra</tspan></text><text x="88" y="269" fill="#172033" font-family="Arial, PingFang SC, sans-serif" font-size="22" font-weight="600" text-anchor="start"><tspan x="88" dy="0">Application</tspan></text><rect x="310" y="240" width="430" height="34" rx="17" fill="#e8e6e0"/><rect x="310" y="240" width="235.97365192810284" height="34" rx="17" fill="#ed94d7"/><text x="760" y="268" fill="#172033" font-family="Arial, PingFang SC, sans-serif" font-size="21" font-weight="600" text-anchor="start"><tspan x="760" dy="0">55%</tspan></text><text x="88" y="357" fill="#172033" font-family="Arial, PingFang SC, sans-serif" font-size="22" font-weight="600" text-anchor="start"><tspan x="88" dy="0">Framework</tspan></text><rect x="310" y="328" width="430" height="34" rx="17" fill="#e8e6e0"/><rect x="310" y="328" width="98.56125660035201" height="34" rx="17" fill="#7058ff"/><text x="760" y="356" fill="#172033" font-family="Arial, PingFang SC, sans-serif" font-size="21" font-weight="600" text-anchor="start"><tspan x="760" dy="0">23%</tspan></text><text x="88" y="445" fill="#172033" font-family="Arial, PingFang SC, sans-serif" font-size="22" font-weight="600" text-anchor="start"><tspan x="88" dy="0">Runtime</tspan></text><rect x="310" y="416" width="430" height="34" rx="17" fill="#e8e6e0"/><rect x="310" y="416" width="95.46509147154515" height="34" rx="17" fill="#92c7f6"/><text x="760" y="444" fill="#172033" font-family="Arial, PingFang SC, sans-serif" font-size="21" font-weight="600" text-anchor="start"><tspan x="760" dy="0">22%</tspan></text><rect x="840" y="202" width="720" height="560" rx="18" fill="#ffffff" stroke="#d7dbe5"/><text x="858" y="188" fill="#172033" font-family="Arial, PingFang SC, sans-serif" font-size="26" font-weight="600" text-anchor="start"><tspan x="858" dy="0">Model Infra</tspan></text><text x="858" y="269" fill="#172033" font-family="Arial, PingFang SC, sans-serif" font-size="22" font-weight="600" text-anchor="start"><tspan x="858" dy="0">Serving</tspan></text><rect x="1080" y="240" width="430" height="34" rx="17" fill="#e8e6e0"/><rect x="1080" y="240" width="191.11629083550162" height="34" rx="17" fill="#ed94d7"/><text x="1530" y="268" fill="#172033" font-family="Arial, PingFang SC, sans-serif" font-size="21" font-weight="600" text-anchor="start"><tspan x="1530" dy="0">44%</tspan></text><text x="858" y="357" fill="#172033" font-family="Arial, PingFang SC, sans-serif" font-size="22" font-weight="600" text-anchor="start"><tspan x="858" dy="0">Pre-Train</tspan></text><rect x="1080" y="328" width="430" height="34" rx="17" fill="#e8e6e0"/><rect x="1080" y="328" width="135.00433651344318" height="34" rx="17" fill="#7058ff"/><text x="1530" y="356" fill="#172033" font-family="Arial, PingFang SC, sans-serif" font-size="21" font-weight="600" text-anchor="start"><tspan x="1530" dy="0">31%</tspan></text><text x="858" y="445" fill="#172033" font-family="Arial, PingFang SC, sans-serif" font-size="22" font-weight="600" text-anchor="start"><tspan x="858" dy="0">Data</tspan></text><rect x="1080" y="416" width="430" height="34" rx="17" fill="#e8e6e0"/><rect x="1080" y="416" width="57.40170569528765" height="34" rx="17" fill="#92c7f6"/><text x="1530" y="444" fill="#172033" font-family="Arial, PingFang SC, sans-serif" font-size="21" font-weight="600" text-anchor="start"><tspan x="1530" dy="0">13%</tspan></text><text x="858" y="533" fill="#172033" font-family="Arial, PingFang SC, sans-serif" font-size="22" font-weight="600" text-anchor="start"><tspan x="858" dy="0">Compute</tspan></text><rect x="1080" y="504" width="430" height="34" rx="17" fill="#e8e6e0"/><rect x="1080" y="504" width="24.691746169413126" height="34" rx="17" fill="#8de2e8"/><text x="1530" y="532" fill="#172033" font-family="Arial, PingFang SC, sans-serif" font-size="21" font-weight="600" text-anchor="start"><tspan x="1530" dy="0">6%</tspan></text><text x="858" y="621" fill="#172033" font-family="Arial, PingFang SC, sans-serif" font-size="22" font-weight="600" text-anchor="start"><tspan x="858" dy="0">Post-Train</tspan></text><rect x="1080" y="592" width="430" height="34" rx="17" fill="#e8e6e0"/><rect x="1080" y="592" width="21.785920786354435" height="34" rx="17" fill="#b6b2aa"/><text x="1530" y="620" fill="#172033" font-family="Arial, PingFang SC, sans-serif" font-size="21" font-weight="600" text-anchor="start"><tspan x="1530" dy="0">5%</tspan></text></svg>