<svg xmlns="http://www.w3.org/2000/svg" width="1600" height="900" viewBox="0 0 1600 900" role="img" aria-label="Current collaboration surface of the Top 100"><rect width="1600" height="900" fill="#fbfaf6"/><rect x="64" y="54" width="10" height="58" rx="5" fill="#7058ff"/><text x="100" y="96" fill="#172033" font-family="Arial, PingFang SC, sans-serif" font-size="42" font-weight="600" text-anchor="start"><tspan x="100" dy="0">Current collaboration surface of the Top 100</tspan></text><line x1="64" y1="166" x2="1536" y2="166" stroke="#d7dbe5"/><text x="90" y="248" fill="#172033" font-family="Arial, PingFang SC, sans-serif" font-size="22" font-weight="600" text-anchor="start"><tspan x="90" dy="0">Issues enabled</tspan></text><rect x="520" y="220" width="760" height="36" rx="18" fill="#e9e7e1"/><rect x="520" y="220" width="760" height="36" rx="18" fill="#7058ff"/><text x="1310" y="249" fill="#172033" font-family="Arial, PingFang SC, sans-serif" font-size="22" font-weight="600" text-anchor="start"><tspan x="1310" dy="0">100 / 100</tspan></text><text x="90" y="321.75" fill="#172033" font-family="Arial, PingFang SC, sans-serif" font-size="22" font-weight="600" text-anchor="start"><tspan x="90" dy="0">Pull Requests enabled</tspan></text><rect x="520" y="293.75" width="760" height="36" rx="18" fill="#e9e7e1"/><rect x="520" y="293.75" width="760" height="36" rx="18" fill="#7058ff"/><text x="1310" y="322.75" fill="#172033" font-family="Arial, PingFang SC, sans-serif" font-size="22" font-weight="600" text-anchor="start"><tspan x="1310" dy="0">100 / 100</tspan></text><text x="90" y="395.5" fill="#172033" font-family="Arial, PingFang SC, sans-serif" font-size="22" font-weight="600" text-anchor="start"><tspan x="90" dy="0">Anyone can create a pull</tspan><tspan x="90" dy="27.5">request</tspan></text><rect x="520" y="367.5" width="760" height="36" rx="18" fill="#e9e7e1"/><rect x="520" y="367.5" width="744.8" height="36" rx="18" fill="#7058ff"/><text x="1310" y="396.5" fill="#172033" font-family="Arial, PingFang SC, sans-serif" font-size="22" font-weight="600" text-anchor="start"><tspan x="1310" dy="0">98 / 100</tspan></text><text x="90" y="469.25" fill="#172033" font-family="Arial, PingFang SC, sans-serif" font-size="22" font-weight="600" text-anchor="start"><tspan x="90" dy="0">Creation restricted to</tspan><tspan x="90" dy="27.5">collaborators</tspan></text><rect x="520" y="441.25" width="760" height="36" rx="18" fill="#e9e7e1"/><rect x="520" y="441.25" width="15.200000000000001" height="36" rx="18" fill="#7058ff"/><text x="1310" y="470.25" fill="#172033" font-family="Arial, PingFang SC, sans-serif" font-size="22" font-weight="600" text-anchor="start"><tspan x="1310" dy="0">2 / 100</tspan></text><text x="90" y="543" fill="#172033" font-family="Arial, PingFang SC, sans-serif" font-size="22" font-weight="600" text-anchor="start"><tspan x="90" dy="0">Discussions enabled</tspan></text><rect x="520" y="515" width="760" height="36" rx="18" fill="#e9e7e1"/><rect x="520" y="515" width="562.4" height="36" rx="18" fill="#7058ff"/><text x="1310" y="544" fill="#172033" font-family="Arial, PingFang SC, sans-serif" font-size="22" font-weight="600" text-anchor="start"><tspan x="1310" dy="0">74 / 100</tspan></text><text x="90" y="616.75" fill="#172033" font-family="Arial, PingFang SC, sans-serif" font-size="22" font-weight="600" text-anchor="start"><tspan x="90" dy="0">CONTRIBUTING found</tspan></text><rect x="520" y="588.75" width="760" height="36" rx="18" fill="#e9e7e1"/><rect x="520" y="588.75" width="676.4" height="36" rx="18" fill="#7058ff"/><text x="1310" y="617.75" fill="#172033" font-family="Arial, PingFang SC, sans-serif" font-size="22" font-weight="600" text-anchor="start"><tspan x="1310" dy="0">89 / 100</tspan></text><text x="90" y="690.5" fill="#172033" font-family="Arial, PingFang SC, sans-serif" font-size="22" font-weight="600" text-anchor="start"><tspan x="90" dy="0">Issue template found</tspan></text><rect x="520" y="662.5" width="760" height="36" rx="18" fill="#e9e7e1"/><rect x="520" y="662.5" width="722" height="36" rx="18" fill="#7058ff"/><text x="1310" y="691.5" fill="#172033" font-family="Arial, PingFang SC, sans-serif" font-size="22" font-weight="600" text-anchor="start"><tspan x="1310" dy="0">95 / 100</tspan></text><text x="90" y="764.25" fill="#172033" font-family="Arial, PingFang SC, sans-serif" font-size="22" font-weight="600" text-anchor="start"><tspan x="90" dy="0">Pull-request template found</tspan></text><rect x="520" y="736.25" width="760" height="36" rx="18" fill="#e9e7e1"/><rect x="520" y="736.25" width="638.4" height="36" rx="18" fill="#7058ff"/><text x="1310" y="765.25" fill="#172033" font-family="Arial, PingFang SC, sans-serif" font-size="22" font-weight="600" text-anchor="start"><tspan x="1310" dy="0">84 / 100</tspan></text></svg>